0
SECTION
2
HEADER
9
$INSUNITS
70
4
9
$ACADVER
1
AC1014
9
$HANDSEED
5
FFFF
0
ENDSEC
0
SECTION
2
TABLES
0
TABLE
2
VPORT
5
8
100
AcDbSymbolTable
0
ENDTAB
0
TABLE
2
LTYPE
5
5
100
AcDbSymbolTable
0
LTYPE
5
14
100
AcDbSymbolTableRecord
100
AcDbLinetypeTableRecord
2
BYBLOCK
70
0
0
LTYPE
5
15
100
AcDbSymbolTableRecord
100
AcDbLinetypeTableRecord
2
BYLAYER
70
0
0
LTYPE
5
16
100
AcDbSymbolTableRecord
100
AcDbLinetypeTableRecord
2
DASHED
70
0
3
Dashed __ __ __ __ __ __ __ __ __ __ __ __ __ _
72
65
73
2
40
0.75
49
0.5
74
0
49
-0.25
74
0
0
ENDTAB
0
TABLE
2
LAYER
5
2
100
AcDbSymbolTable
70
2
0
LAYER
5
50
100
AcDbSymbolTableRecord
100
AcDbLayerTableRecord
2
0
70
0
62
7
6
CONTINUOUS
0
ENDTAB
0
TABLE
2
STYLE
5
3
100
AcDbSymbolTable
70
1
0
STYLE
5
11
100
AcDbSymbolTableRecord
100
AcDbTextStyleTableRecord
2
STANDARD
70
0
0
ENDTAB
0
TABLE
2
VIEW
5
6
100
AcDbSymbolTable
70
0
0
ENDTAB
0
TABLE
2
UCS
5
7
100
AcDbSymbolTable
70
0
0
ENDTAB
0
TABLE
2
APPID
5
9
100
AcDbSymbolTable
70
2
0
APPID
5
12
100
AcDbSymbolTableRecord
100
AcDbRegAppTableRecord
2
ACAD
70
0
0
ENDTAB
0
TABLE
2
DIMSTYLE
5
A
100
AcDbSymbolTable
70
1
0
ENDTAB
0
TABLE
2
BLOCK_RECORD
5
1
100
AcDbSymbolTable
70
1
0
BLOCK_RECORD
5
1F
100
AcDbSymbolTableRecord
100
AcDbBlockTableRecord
2
*MODEL_SPACE
0
BLOCK_RECORD
5
1B
100
AcDbSymbolTableRecord
100
AcDbBlockTableRecord
2
*PAPER_SPACE
0
ENDTAB
0
ENDSEC
0
SECTION
2
BLOCKS
0
BLOCK
5
20
100
AcDbEntity
100
AcDbBlockBegin
2
*MODEL_SPACE
0
ENDBLK
5
21
100
AcDbEntity
100
AcDbBlockEnd
0
BLOCK
5
1C
100
AcDbEntity
100
AcDbBlockBegin
2
*PAPER_SPACE
0
ENDBLK
5
1D
100
AcDbEntity
100
AcDbBlockEnd
0
ENDSEC
0
SECTION
2
ENTITIES
0
ARC
5
100
100
AcDbEntity
8
0
100
AcDbCircle
10
60.14999999999997
20
-48.41500000000002
30
0
40
2.9999999999999716
210
0
220
0
230
1
100
AcDbArc
50
180
51
270.00000000000051
0
LINE
5
101
100
AcDbEntity
8
0
100
AcDbLine
10
57.15000000000002
20
-3.0000000000000004
30
0
11
57.149999999999999
21
-48.414999999999999
31
0
0
ARC
5
102
100
AcDbEntity
8
0
100
AcDbCircle
10
54.15000000000002
20
-3.0000000000000004
30
0
40
2.9999999999999982
210
0
220
-0
230
1
100
AcDbArc
50
0
51
90
0
LINE
5
103
100
AcDbEntity
8
0
100
AcDbLine
10
60.149999999999999
20
-51.414999999999992
30
0
11
80
21
-51.414999999999992
31
0
0
LINE
5
104
100
AcDbEntity
8
0
100
AcDbLine
10
83
20
-54.414999999999985
30
0
11
83
21
-73.713089164723087
31
0
0
LINE
5
105
100
AcDbEntity
8
0
100
AcDbLine
10
82.598076211353302
20
-75.2130891647232
30
0
11
66.611920087683927
21
-102.90192378864681
31
0
0
LINE
5
106
100
AcDbEntity
8
0
100
AcDbLine
10
62.513843876330597
20
-104.00000000000013
30
0
11
54.896152422706436
21
-99.601923788646729
31
0
0
ARC
5
107
100
AcDbEntity
8
0
100
AcDbCircle
10
80.000000000000341
20
-73.713089164723257
30
0
40
2.9999999999996705
210
-0
220
0
230
1
100
AcDbArc
50
-30.000000000002458
51
0
0
ARC
5
108
100
AcDbEntity
8
0
100
AcDbCircle
10
79.999999999999986
20
-54.415000000000013
30
0
40
3.0000000000000249
210
0
220
-0
230
1
100
AcDbArc
50
0
51
89.99999999999973
0
LINE
5
109
100
AcDbEntity
8
0
100
AcDbLine
10
0
20
0
30
0
11
54.15000000000002
21
0
31
0
0
LINE
5
110
100
AcDbEntity
8
0
100
AcDbLine
10
-12.80000000000002
20
-84.099999999999994
30
0
11
-54.399999999999984
21
-84.099999999999994
31
0
0
ARC
5
111
100
AcDbEntity
8
0
100
AcDbCircle
10
-12.800000000000018
20
-87.100000000000023
30
0
40
3.0000000000000249
210
0
220
-0
230
1
100
AcDbArc
50
0
51
89.999999999999574
0
ARC
5
112
100
AcDbEntity
8
0
100
AcDbCircle
10
-54.39999999999997
20
-81.09999999999998
30
0
40
3.0000000000000249
210
0
220
0
230
1
100
AcDbArc
50
180
51
269.9999999999996
0
LINE
5
113
100
AcDbEntity
8
0
100
AcDbLine
10
-9.7999999999999954
20
-87.100000000000023
30
0
11
-9.8000000000000078
21
-96.199999999999918
31
0
0
LINE
5
114
100
AcDbEntity
8
0
100
AcDbLine
10
53.39615242270645
20
-99.200000000000017
30
0
11
-6.8000000000000149
21
-99.199999999999932
31
0
0
ARC
5
115
100
AcDbEntity
8
0
100
AcDbCircle
10
-6.8000000000000158
20
-96.199999999999932
30
0
40
2.9999999999999929
210
0
220
0
230
1
100
AcDbArc
50
180
51
270
0
ARC
5
116
100
AcDbEntity
8
0
100
AcDbCircle
10
64.013843876330597
20
-101.40192378864677
30
0
40
3.0000000000000311
210
0
220
0
230
1
100
AcDbArc
50
240.00000000000037
51
329.99999999999937
0
ARC
5
117
100
AcDbEntity
8
0
100
AcDbCircle
10
53.396152422706521
20
-102.19999999999956
30
0
40
2.9999999999995453
210
0
220
-0
230
1
100
AcDbArc
50
59.999999999996803
51
90.000000000001364
0
LINE
5
118
100
AcDbEntity
8
0
100
AcDbLine
10
-57.399999999999942
20
-10.00294434985477
30
0
11
-57.400000000000013
21
-81.09999999999998
31
0
0
ARC
5
119
100
AcDbEntity
8
0
100
AcDbCircle
10
1.1543726636719136e-11
20
-217.79545454549884
30
0
40
217.79545454549884
210
0
220
0
230
1
100
AcDbArc
50
90.000000000003041
51
104.67075544960909
0
ARC
5
120
100
AcDbEntity
8
0
100
AcDbCircle
10
-54.399999999999899
20
-10.002944349854788
30
0
40
3.0000000000000426
210
0
220
-0
230
1
100
AcDbArc
50
104.67075544960984
51
180
0
LINE
5
121
100
AcDbEntity
8
0
100
AcDbLine
10
0
20
-2.5150000000000006
30
0
11
0
21
2
31
0
0
ENDSEC
0
SECTION
2
OBJECTS
0
DICTIONARY
5
C
100
AcDbDictionary
3
ACAD_GROUP
350
D
3
ACAD_MLINESTYLE
350
17
0
DICTIONARY
5
D
100
AcDbDictionary
0
DICTIONARY
5
1A
330
C
100
AcDbDictionary
0
DICTIONARY
5
17
100
AcDbDictionary
0
ENDSEC
0
EOF
